<?xml version="1.0" standalone="no"?>
<!DOCTYPE svg PUBLIC "-//W3C//DTD SVG 20010904//EN"
 "http://www.w3.org/TR/2001/REC-SVG-20010904/DTD/svg10.dtd">
<svg version="1.0" xmlns="http://www.w3.org/2000/svg"
 width="1484.000000pt" height="1484.000000pt" viewBox="0 0 1484.000000 1484.000000"
 preserveAspectRatio="xMidYMid meet">
<metadata>
Created by potrace 1.14, written by Peter Selinger 2001-2017
</metadata>
<g transform="translate(0.000000,1484.000000) scale(0.100000,-0.100000)"
fill="#000000" stroke="none">
<path d="M3969 13446 c-2 -2 -38 -7 -79 -10 -41 -4 -104 -11 -140 -17 -36 -6
-78 -13 -95 -16 -284 -45 -673 -196 -940 -364 -156 -98 -228 -151 -365 -270
-311 -271 -577 -640 -725 -1004 -20 -49 -40 -99 -45 -110 -11 -23 -85 -266
-95 -310 -4 -16 -9 -39 -11 -50 -2 -11 -8 -42 -14 -70 -19 -97 -28 -170 -45
-350 -6 -63 -7 -2236 -1 -2242 2 -3 10 -6 18 -7 40 -8 228 -97 228 -108 0 -4
3 -7 8 -6 10 3 75 -32 84 -46 4 -6 8 -7 8 -3 0 5 12 0 27 -11 16 -10 43 -25
61 -33 17 -8 32 -18 32 -22 0 -5 4 -5 10 -2 5 3 10 2 10 -2 0 -5 15 -16 33
-24 44 -22 121 -63 127 -69 3 -3 19 -12 35 -20 17 -8 47 -25 67 -37 21 -13 44
-23 53 -23 8 0 15 -4 15 -8 0 -5 12 -14 28 -21 15 -7 71 -37 124 -67 54 -30
100 -55 103 -54 3 0 13 -6 21 -15 9 -8 20 -13 25 -10 5 4 9 1 9 -4 0 -6 7 -11
15 -11 8 0 15 -4 15 -10 0 -5 4 -10 10 -10 5 0 46 -21 92 -48 46 -26 99 -55
118 -65 19 -10 44 -23 55 -30 11 -6 31 -18 45 -27 14 -8 27 -15 30 -15 3 0 43
-22 89 -48 46 -26 87 -47 91 -47 4 0 13 -7 20 -15 7 -9 15 -13 18 -10 3 3 14
-2 24 -12 10 -9 18 -12 18 -7 0 5 4 4 8 -2 4 -7 52 -35 107 -64 55 -29 103
-58 107 -64 4 -6 8 -8 8 -4 0 3 48 -21 108 -56 59 -34 123 -70 142 -79 19 -10
67 -36 105 -58 39 -22 78 -43 88 -46 9 -3 17 -10 17 -16 0 -6 3 -8 6 -4 3 3
24 -5 45 -18 21 -14 44 -26 51 -27 7 -2 21 -11 32 -20 11 -10 23 -18 27 -18 3
0 55 -27 114 -60 59 -33 110 -60 112 -60 3 0 18 -9 34 -21 16 -11 29 -17 29
-12 0 4 6 1 13 -7 7 -8 35 -26 62 -39 28 -14 62 -33 77 -43 14 -10 33 -18 41
-18 9 0 17 -4 19 -8 2 -4 29 -22 61 -40 l58 -32 57 15 c31 9 71 18 87 20 17 1
30 4 30 5 0 4 93 11 188 14 l97 2 57 50 c93 80 154 136 205 186 26 26 48 45
48 42 0 -2 23 18 51 46 28 27 55 50 60 50 6 0 7 5 4 10 -3 6 -2 10 4 10 5 0
16 6 23 13 7 6 51 46 98 87 46 41 94 84 106 95 12 11 61 56 110 100 49 44 106
97 127 118 21 20 40 37 43 37 2 0 25 20 50 45 24 25 47 45 50 45 5 0 43 35
146 133 16 15 34 27 39 27 6 0 8 4 5 9 -3 4 6 13 20 20 15 6 22 16 18 23 -4 6
-3 8 2 5 6 -3 45 28 87 69 43 41 80 74 82 74 3 0 30 25 61 55 31 30 59 55 61
55 3 0 27 22 54 49 27 27 49 47 49 45 0 -2 19 14 42 36 24 22 47 40 51 40 5 0
5 5 2 10 -3 6 -2 10 4 10 10 0 37 23 131 110 20 19 63 58 95 85 32 28 72 64
89 80 17 17 50 47 73 67 23 20 39 39 35 42 -3 3 1 6 9 6 8 0 31 18 52 40 20
22 37 37 37 34 0 -3 13 7 29 23 16 15 54 51 86 78 105 92 195 184 195 200 0
23 66 176 113 260 21 39 41 78 44 88 3 9 9 17 14 17 5 0 9 6 9 13 0 8 11 27
24 42 14 16 24 31 23 34 -2 6 31 58 48 77 23 25 63 79 64 86 1 4 16 23 34 42
181 190 197 205 302 286 39 30 73 59 77 65 4 5 8 6 8 2 0 -4 10 1 22 13 12 11
28 20 35 20 7 0 13 4 13 8 0 5 12 15 28 23 15 8 29 16 32 19 13 15 119 68 124
63 3 -4 6 -1 6 5 0 7 7 12 15 12 8 0 15 5 15 12 0 6 3 8 6 5 4 -3 16 -1 28 5
11 7 23 13 26 13 3 1 25 10 50 21 43 20 110 47 120 50 3 1 20 5 38 9 17 4 32
11 32 16 0 5 3 8 8 7 15 -4 92 14 98 23 3 5 10 7 15 4 5 -4 15 -3 21 1 12 8
23 10 83 18 17 2 30 5 30 6 0 1 14 4 30 5 17 2 50 7 75 11 25 4 66 8 92 8 27
1 48 3 48 6 0 10 329 -1 405 -13 11 -2 45 -7 75 -12 30 -4 64 -9 75 -12 11 -2
33 -6 48 -9 16 -2 34 -7 40 -11 7 -4 19 -8 27 -10 15 -2 81 -20 110 -31 8 -3
22 -6 30 -8 8 -2 48 -17 88 -33 39 -16 72 -27 72 -23 0 4 4 3 8 -3 4 -5 36
-23 72 -40 85 -39 133 -66 254 -145 74 -47 219 -158 224 -172 2 -4 8 -6 13 -2
5 3 9 -2 9 -10 0 -9 5 -16 11 -16 15 0 39 -26 32 -34 -4 -3 0 -6 8 -6 8 0 25
-16 39 -35 14 -19 33 -37 43 -41 9 -3 15 -8 13 -12 -6 -10 21 -32 30 -24 4 4
4 2 1 -5 -4 -6 3 -20 16 -30 13 -10 26 -26 30 -35 3 -10 11 -18 17 -18 5 0 10
-7 10 -15 0 -7 8 -19 18 -24 9 -6 13 -11 9 -11 -4 0 2 -10 13 -22 44 -47 172
-253 163 -262 -4 -3 -2 -6 4 -6 10 0 26 -36 24 -52 -1 -5 4 -8 10 -8 5 0 7 -4
4 -10 -3 -5 -1 -10 4 -10 6 0 11 -7 11 -16 0 -9 10 -30 22 -47 12 -17 17 -28
11 -24 -6 4 -3 -10 7 -30 24 -52 61 -158 63 -183 1 -11 5 -20 9 -20 4 0 7 -3
6 -7 -1 -5 3 -26 7 -48 13 -56 12 -55 15 -57 4 -6 15 -66 25 -133 3 -23 8 -52
10 -65 22 -108 21 -441 0 -550 -3 -14 -7 -38 -10 -55 -4 -30 -19 -106 -30
-155 -3 -14 -8 -36 -11 -50 -8 -36 -10 -43 -17 -60 -10 -25 -39 -114 -42 -130
-2 -8 -4 -16 -5 -17 -2 -2 -3 -6 -5 -10 -2 -10 -31 -76 -56 -130 -10 -24 -20
-46 -20 -50 -1 -5 -9 -19 -18 -33 -9 -14 -27 -47 -41 -75 -14 -27 -33 -58 -43
-69 -10 -11 -15 -27 -12 -35 3 -9 3 -12 -1 -8 -4 4 -26 -22 -49 -58 -23 -35
-45 -62 -48 -58 -4 3 -7 1 -7 -6 0 -16 -120 -160 -163 -197 -18 -15 -31 -28
-30 -30 1 -2 -14 -19 -32 -37 -19 -19 -35 -32 -35 -29 0 4 -7 -4 -16 -16 -8
-12 -22 -22 -30 -22 -8 0 -14 -7 -14 -15 0 -8 -5 -15 -10 -15 -6 0 -22 -11
-35 -25 -14 -13 -25 -22 -25 -19 0 6 -122 -86 -131 -99 -3 -5 -9 -8 -13 -8
-13 2 -116 -61 -116 -72 0 -6 -3 -8 -6 -4 -3 3 -36 -9 -72 -27 -72 -36 -182
-84 -232 -101 -3 -1 -12 -4 -20 -8 -29 -12 -170 -50 -230 -62 -124 -25 -133
-27 -238 -41 -66 -9 -406 -11 -437 -2 -19 5 -31 4 -33 -2 -2 -5 -8 -10 -14
-10 -6 0 -53 -20 -105 -45 -52 -25 -96 -45 -98 -45 -2 0 -39 -17 -82 -38 -43
-21 -82 -40 -88 -41 -5 -2 -35 -15 -65 -29 -30 -14 -57 -27 -60 -27 -12 -4
-61 -25 -127 -58 -39 -19 -74 -33 -76 -31 -2 3 -10 -2 -17 -11 -7 -8 -17 -15
-22 -15 -5 0 -34 -11 -64 -25 -30 -14 -78 -36 -108 -50 -30 -14 -60 -25 -65
-25 -6 0 -11 -4 -11 -10 0 -5 -5 -10 -11 -10 -12 0 -28 -7 -187 -82 -57 -26
-109 -48 -117 -48 -7 0 -15 -5 -17 -10 -2 -6 -14 -12 -27 -15 -14 -2 -28 -10
-31 -16 -4 -6 -10 -10 -14 -10 -3 1 -7 1 -8 0 -2 0 -12 -2 -23 -4 -11 -2 -21
-9 -23 -14 -2 -6 -9 -11 -15 -11 -15 0 -151 -63 -158 -73 -3 -5 -10 -8 -15 -8
-17 1 -74 -23 -74 -31 0 -4 -9 -8 -19 -8 -11 0 -22 -4 -26 -9 -3 -5 -19 -12
-35 -16 -17 -4 -30 -11 -30 -16 0 -5 -3 -8 -7 -7 -13 3 -53 -13 -53 -21 0 -4
-6 -8 -12 -8 -7 0 -53 -19 -103 -43 -49 -23 -110 -51 -135 -62 -25 -11 -70
-31 -100 -45 -30 -14 -56 -25 -57 -24 -2 0 -28 -13 -59 -29 -31 -17 -62 -30
-70 -30 -8 0 -14 -4 -14 -10 0 -5 -7 -10 -15 -10 -8 0 -30 -9 -50 -20 -19 -11
-37 -20 -40 -20 -3 -1 -22 -8 -42 -17 -21 -9 -41 -16 -45 -15 -5 1 -8 -2 -8
-8 0 -5 -5 -10 -11 -10 -11 0 -56 -19 -178 -77 -95 -45 -124 -57 -133 -55 -5
1 -8 -2 -8 -7 0 -5 -10 -12 -22 -16 -13 -4 -25 -9 -28 -10 -3 -1 -15 -6 -27
-10 -12 -4 -24 -18 -27 -31 -4 -14 -25 -64 -47 -112 -22 -48 -39 -88 -37 -89
2 -1 -8 -13 -21 -27 -14 -14 -20 -26 -15 -26 5 0 4 -4 -1 -8 -6 -4 -19 -20
-29 -37 -11 -16 -23 -34 -28 -40 -4 -5 -27 -35 -51 -65 -47 -60 -146 -160
-160 -160 -4 0 -5 -4 -2 -10 3 -5 2 -10 -4 -10 -5 0 -23 -11 -38 -25 -47 -41
-52 -45 -62 -45 -5 0 -11 -3 -13 -7 -3 -9 -77 -59 -118 -81 -71 -39 -85 -46
-90 -47 -3 -1 -27 -12 -55 -25 -27 -13 -56 -23 -62 -22 -7 2 -13 -2 -13 -8 0
-5 -3 -9 -7 -8 -9 1 -59 -10 -83 -19 -18 -8 -16 -7 -65 -18 -22 -4 -47 -10
-55 -12 -17 -5 -52 -10 -125 -18 -55 -6 -232 -6 -280 0 -16 2 -50 6 -75 8 -25
3 -66 11 -90 18 -25 6 -52 13 -60 14 -8 1 -22 5 -30 8 -8 3 -44 15 -80 28 -36
12 -77 28 -92 36 -16 7 -28 10 -28 6 0 -5 -4 -3 -8 3 -4 6 -31 23 -61 38 -73
36 -181 107 -181 118 0 5 -4 6 -10 3 -6 -3 -10 -1 -10 4 0 6 -5 11 -10 11 -22
0 -142 124 -262 269 -22 27 -76 111 -72 111 3 0 -2 7 -10 16 -9 8 -16 22 -16
30 0 8 -5 14 -11 14 -5 0 -7 5 -4 10 3 6 1 10 -4 10 -6 0 -11 4 -11 10 0 5
-13 39 -30 75 -16 36 -30 72 -30 80 0 7 -5 17 -10 20 -6 4 -8 10 -5 15 5 8
-23 25 -37 22 -5 -1 -8 2 -8 8 0 5 -9 10 -20 10 -11 0 -20 5 -20 10 0 6 -4 10
-10 10 -5 0 -38 13 -72 30 -35 16 -67 29 -72 29 -5 -1 -12 3 -15 8 -3 4 -26
18 -51 30 -25 12 -107 51 -182 87 -75 36 -141 66 -147 66 -6 0 -11 5 -11 10 0
6 -3 9 -7 8 -5 -1 -27 8 -50 20 -24 12 -43 19 -43 15 0 -5 -4 -3 -8 3 -8 12
-84 49 -94 46 -5 -1 -8 2 -8 8 0 5 -6 10 -12 10 -7 0 -57 22 -110 50 -54 27
-98 47 -98 44 0 -3 -12 3 -27 14 -24 16 -54 31 -73 37 -3 1 -75 35 -160 77
-85 41 -173 83 -195 93 -22 11 -43 24 -47 29 -4 6 -8 7 -8 2 0 -5 -7 -3 -15 4
-8 7 -15 9 -15 4 0 -5 -4 -4 -8 1 -10 14 -71 45 -88 45 -8 0 -14 5 -14 10 0 6
-3 9 -7 8 -5 -1 -78 32 -163 74 -223 109 -328 158 -340 158 -5 0 -10 5 -10 11
0 5 -4 8 -9 5 -5 -4 -11 -2 -13 3 -1 5 -11 11 -21 13 -16 3 -17 -52 -16 -1067
0 -588 2 -1092 4 -1119 7 -95 21 -224 30 -266 3 -14 7 -42 9 -62 3 -20 9 -54
15 -75 6 -21 13 -53 16 -70 10 -61 76 -268 122 -383 204 -512 571 -966 1024
-1265 41 -27 87 -57 103 -68 53 -36 290 -154 391 -194 170 -69 448 -150 540
-158 6 -1 28 -5 50 -9 173 -34 202 -35 3760 -33 1920 2 3501 5 3515 9 14 4 46
9 72 12 267 34 618 139 833 249 33 17 63 31 66 32 18 1 279 165 364 227 413
306 728 709 920 1177 57 139 126 360 141 451 2 14 9 45 14 70 13 60 28 158 37
250 11 101 10 6995 0 7090 -11 93 -49 317 -63 362 -3 9 -7 27 -9 40 -10 53
-80 260 -122 363 -121 296 -300 578 -523 820 -142 154 -315 302 -490 419 -192
129 -405 236 -622 311 -102 36 -301 91 -367 101 -18 3 -43 8 -55 10 -11 2 -50
9 -86 15 -36 5 -81 13 -100 16 -39 7 -7024 16 -7031 9z"/>
<path d="M9578 10044 c-2 -1 -28 -5 -58 -8 -62 -7 -94 -12 -130 -21 -14 -3
-34 -7 -45 -9 -30 -5 -104 -26 -134 -38 -14 -6 -28 -12 -31 -13 -13 -4 -47
-18 -70 -27 -14 -5 -26 -10 -27 -9 -7 2 -158 -83 -161 -91 -2 -4 -7 -8 -12 -8
-12 0 -108 -66 -165 -113 -52 -44 -197 -187 -189 -187 3 0 -7 -11 -22 -25 -15
-14 -24 -25 -21 -25 3 0 -5 -12 -18 -26 -14 -15 -22 -30 -19 -35 3 -5 1 -9 -4
-9 -17 0 -140 -214 -134 -232 1 -5 -3 -8 -10 -8 -6 0 -8 -3 -5 -7 4 -3 0 -17
-8 -30 -9 -13 -13 -28 -10 -33 3 -6 2 -10 -3 -10 -10 0 -47 -111 -57 -169 -3
-19 -8 -38 -11 -43 -3 -4 -7 -27 -10 -50 -2 -24 -7 -59 -10 -78 -10 -53 -11
-279 -2 -335 4 -27 10 -66 12 -85 3 -19 8 -46 11 -60 3 -14 8 -32 10 -40 2 -8
4 -15 5 -15 1 0 3 -9 6 -20 2 -11 6 -35 10 -52 3 -18 10 -33 15 -33 5 0 8 -3
7 -7 -3 -11 10 -49 38 -111 13 -29 24 -57 24 -62 0 -5 6 -15 13 -22 6 -7 22
-33 34 -58 71 -141 250 -348 393 -453 36 -26 70 -50 75 -55 31 -23 65 -41 65
-35 0 5 4 3 8 -3 13 -20 214 -118 264 -128 13 -3 33 -10 73 -25 11 -5 28 -7
38 -5 9 1 17 -1 17 -6 0 -8 49 -20 109 -25 19 -2 53 -7 75 -11 64 -11 282 -6
384 10 18 3 51 8 73 11 23 4 52 10 65 15 13 5 24 8 24 5 0 -2 15 2 34 10 18 8
36 11 40 8 3 -4 6 -1 6 5 0 7 3 11 8 11 4 -1 10 0 15 1 4 1 12 4 17 5 6 1 12
4 15 5 3 1 8 4 13 5 30 9 83 32 128 57 30 15 54 26 54 23 0 -3 10 3 22 15 12
11 26 20 31 20 12 0 111 70 115 82 2 4 9 8 15 8 22 1 169 135 237 215 55 66
90 113 90 123 0 6 4 12 8 14 11 4 102 155 102 169 0 6 9 24 21 40 11 16 17 33
14 39 -3 5 -1 10 4 10 6 0 11 7 11 16 0 9 6 28 14 42 13 24 47 137 62 202 31
140 36 431 9 550 -10 44 -18 94 -19 113 0 9 -3 17 -6 17 -3 0 -12 27 -19 60
-8 33 -16 60 -20 60 -4 0 -7 8 -8 18 -1 9 -10 35 -19 57 -10 22 -17 43 -16 48
1 4 -2 7 -6 7 -4 0 -16 23 -27 50 -11 28 -22 50 -26 50 -3 0 -16 20 -29 45
-13 25 -27 45 -32 45 -4 0 -8 5 -8 12 0 12 -71 107 -117 156 -13 14 -23 29
-23 34 0 5 -4 7 -9 4 -5 -3 -11 4 -14 15 -3 12 -10 18 -16 15 -5 -4 -12 3 -16
13 -3 11 -15 23 -26 26 -10 4 -19 10 -19 15 0 10 -183 148 -202 152 -7 2 -18
8 -25 13 -32 26 -41 31 -78 49 -22 11 -42 20 -45 21 -3 0 -27 11 -55 24 -27
12 -54 24 -60 25 -5 2 -17 6 -25 9 -38 14 -87 29 -110 33 -14 3 -41 9 -60 14
-35 9 -53 12 -140 26 -42 6 -287 14 -292 8z m262 -228 c25 -3 56 -8 70 -12 26
-6 88 -20 127 -28 36 -8 203 -76 252 -104 44 -24 144 -90 185 -122 54 -42 232
-230 218 -230 -3 0 4 -10 15 -22 44 -48 153 -252 153 -287 0 -6 5 -11 11 -11
5 0 8 -4 5 -8 -3 -5 3 -33 14 -63 11 -30 21 -67 24 -84 2 -16 5 -30 6 -30 1 0
3 -11 5 -25 2 -14 6 -50 11 -80 17 -122 6 -300 -27 -435 -5 -22 -11 -47 -13
-56 -10 -41 -60 -170 -67 -175 -5 -3 -9 -14 -9 -25 0 -10 -5 -19 -12 -19 -6 0
-9 -3 -5 -6 3 -4 -6 -25 -21 -48 -15 -22 -34 -53 -41 -67 -7 -15 -24 -38 -37
-52 -13 -14 -24 -29 -24 -32 0 -3 -19 -27 -42 -52 -59 -64 -138 -142 -138
-136 0 2 -6 -2 -14 -9 -42 -41 -75 -66 -80 -61 -3 4 -6 1 -6 -5 0 -7 -7 -12
-15 -12 -8 0 -15 -4 -15 -10 0 -5 -6 -10 -14 -10 -8 0 -16 -4 -18 -9 -3 -9
-183 -98 -183 -91 -1 3 -13 -3 -29 -13 -15 -10 -30 -16 -34 -13 -3 3 -16 -1
-29 -9 -13 -9 -23 -14 -23 -12 0 3 -26 -2 -57 -10 -132 -32 -337 -45 -438 -29
-160 27 -346 79 -382 108 -7 6 -13 7 -13 3 0 -4 -7 -2 -15 5 -8 6 -29 20 -47
29 -68 36 -102 56 -118 71 -9 8 -27 22 -39 30 -56 37 -251 229 -251 246 0 3
-11 20 -25 38 -14 18 -25 38 -25 44 0 7 -4 12 -9 12 -9 0 -91 159 -91 178 0 6
-5 12 -12 12 -6 0 -9 3 -5 6 3 4 0 18 -7 33 -16 33 -51 157 -60 216 -34 218
-24 380 39 600 19 66 112 268 126 273 5 2 9 8 9 13 0 32 241 309 269 309 6 0
11 4 11 8 0 9 187 129 230 148 14 6 45 20 70 31 171 78 436 115 640 89z"/>
<path d="M5090 6631 c0 -6 11 -13 25 -17 14 -3 25 -10 25 -15 0 -5 5 -9 10 -9
6 0 45 -20 88 -43 42 -24 106 -60 142 -79 131 -72 165 -91 178 -101 6 -5 12
-6 12 -1 0 5 4 4 8 -3 4 -6 14 -13 22 -15 8 -2 23 -12 33 -22 9 -10 17 -16 17
-12 0 4 7 0 16 -8 8 -9 22 -16 30 -16 8 0 13 -4 12 -9 -2 -5 0 -9 5 -10 12 -1
128 -133 155 -176 14 -22 29 -43 34 -46 5 -3 10 -10 10 -15 1 -12 21 -57 28
-64 7 -6 50 -136 55 -165 2 -11 4 -20 5 -20 3 0 8 -36 16 -103 9 -81 9 -168 0
-242 -11 -92 -19 -130 -29 -147 -5 -7 -6 -13 -3 -13 3 0 -3 -24 -14 -54 -10
-30 -16 -57 -13 -60 4 -3 1 -6 -5 -6 -7 0 -12 -5 -12 -11 0 -14 -49 -119 -71
-150 -10 -14 -16 -28 -14 -31 3 -3 -4 -13 -15 -23 -11 -10 -20 -24 -20 -32 0
-8 -4 -11 -10 -8 -5 3 -10 -1 -10 -9 0 -9 -5 -16 -12 -16 -6 0 -8 -3 -5 -7 4
-3 -2 -12 -13 -20 -11 -8 -20 -21 -20 -30 0 -9 -3 -14 -6 -11 -3 4 -30 -19
-60 -49 -30 -31 -54 -53 -54 -50 0 5 -32 -19 -69 -53 -9 -9 -31 -22 -49 -29
-18 -7 -32 -17 -32 -22 0 -5 -3 -8 -7 -7 -5 1 -29 -8 -55 -20 -84 -37 -162
-61 -218 -65 -14 -1 -29 -5 -35 -8 -11 -7 -131 -4 -190 5 -62 8 -93 15 -138
32 -23 9 -48 16 -54 16 -7 1 -13 5 -13 10 0 4 -4 8 -10 8 -17 0 -90 34 -90 42
0 5 -5 8 -12 8 -11 0 -60 23 -313 146 -61 30 -115 54 -119 54 -4 0 -20 8 -34
18 -33 23 -65 35 -60 24 10 -26 147 -175 203 -221 60 -49 104 -79 109 -74 3 4
6 2 6 -3 0 -5 26 -23 58 -39 31 -17 60 -34 64 -40 4 -5 8 -6 8 -1 0 4 10 1 23
-7 37 -24 205 -73 285 -83 151 -19 385 -5 443 27 9 4 19 6 22 2 4 -3 13 -1 20
5 8 7 17 9 20 5 4 -3 7 -2 7 3 0 5 8 10 18 11 9 1 40 12 67 24 28 13 52 24 55
24 19 5 46 20 52 29 3 5 15 11 25 12 9 2 19 8 21 13 2 6 8 11 14 11 13 0 103
65 140 102 16 16 34 28 40 28 6 0 9 2 6 5 -2 3 22 32 53 65 32 34 64 74 71 90
7 16 15 27 19 24 4 -2 11 6 15 18 4 13 10 25 13 28 22 17 127 259 126 290 0 8
3 17 7 20 4 3 10 28 13 55 4 28 10 68 14 90 8 45 5 267 -4 305 -3 14 -8 36
-11 50 -10 58 -11 66 -16 80 -3 8 -14 38 -23 65 -44 127 -123 267 -197 347
-16 16 -28 32 -28 34 0 10 -79 84 -89 84 -6 0 -11 7 -11 15 0 8 -4 15 -8 15
-5 0 -22 11 -38 25 -16 14 -35 25 -42 25 -7 0 -10 5 -7 10 3 6 2 10 -3 10 -6
0 -39 17 -73 38 -62 38 -216 103 -264 112 -3 1 -19 6 -37 11 -71 22 -228 36
-228 20z"/>
</g>
</svg>
